<svg xmlns="http://www.w3.org/2000/svg" viewBox="0 0 74.11 17.19"><defs><style>.cls-1{fill:#fff;}</style></defs><title>logo</title><g id="Слой_2" data-name="Слой 2"><g id="Слой_1-2" data-name="Слой 1"><path class="cls-1" d="M5.59,12.12h0L7.42.19h3.67V17H8.59v-12H8.54L6.77,17H4.27L2.35,5.11H2.3V17H0V.19H3.67Z"/><path class="cls-1" d="M22.15,17H19.49L19,14H15.79l-.45,3H12.91L15.6.19h3.86Zm-6-5.32h2.54l-1.25-8.5h0Z"/><path class="cls-1" d="M32.78.19,30,8.35,33,17H30.19l-2.13-6.64h0L25.85,17H23.38l2.95-8.64L23.57.19H26.3l2,6.19h.05l2-6.19Z"/><path class="cls-1" d="M46.87,10.73V13c0,2.69-1.34,4.23-3.93,4.23S39,15.65,39,13V4.22C39,1.54,40.34,0,42.94,0s3.93,1.54,3.93,4.22V5.86H44.38V4.06c0-1.2-.53-1.66-1.37-1.66s-1.37.46-1.37,1.66v9.07c0,1.2.53,1.63,1.37,1.63s1.37-.43,1.37-1.63v-2.4Z"/><path class="cls-1" d="M48.86,4.22c0-2.68,1.42-4.22,4-4.22s4,1.54,4,4.22V13c0,2.69-1.42,4.23-4,4.23s-4-1.54-4-4.23Zm2.64,8.91c0,1.2.53,1.66,1.37,1.66s1.37-.46,1.37-1.66V4.06c0-1.2-.53-1.66-1.37-1.66s-1.37.46-1.37,1.66Z"/><path class="cls-1" d="M59.18.19h2.64v14.4h4.35V17h-7Z"/><path class="cls-1" d="M66,.19h8.16v2.4H71.35V17H68.71V2.59H66Z"/></g></g></svg>