<?xml version="1.0" encoding="UTF-8"?>
<svg xmlns="http://www.w3.org/2000/svg" xmlns:xlink="http://www.w3.org/1999/xlink" width="109.25pt" height="40pt" viewBox="0 0 109.25 40" version="1.1">
<g id="surface1">
<path style=" stroke:none;fill-rule:nonzero;fill:rgb(69.398499%,70.199585%,71.398926%);fill-opacity:1;" d="M 99.71875 0 L 9.535156 0 C 9.167969 0 8.804688 0 8.441406 0.00390625 C 8.132813 0.00390625 7.832031 0.0117188 7.519531 0.015625 C 6.855469 0.03125 6.179688 0.0742188 5.515625 0.191406 C 4.847656 0.308594 4.226563 0.507813 3.617188 0.820313 C 3.019531 1.125 2.46875 1.523438 1.996094 1.996094 C 1.519531 2.46875 1.121094 3.019531 0.820313 3.617188 C 0.507813 4.226563 0.3125 4.851563 0.195313 5.523438 C 0.0742188 6.183594 0.03125 6.851563 0.015625 7.523438 C 0.0078125 7.832031 0.00390625 8.136719 0 8.445313 C 0 8.804688 0 9.167969 0 9.535156 L 0 30.464844 C 0 30.832031 0 31.195313 0 31.558594 C 0.00390625 31.867188 0.0078125 32.167969 0.015625 32.480469 C 0.03125 33.148438 0.0742188 33.820313 0.195313 34.480469 C 0.3125 35.152344 0.507813 35.78125 0.820313 36.386719 C 1.121094 36.980469 1.519531 37.53125 1.996094 38 C 2.46875 38.480469 3.019531 38.875 3.617188 39.179688 C 4.226563 39.492188 4.847656 39.6875 5.515625 39.8125 C 6.179688 39.929688 6.855469 39.96875 7.519531 39.988281 C 7.832031 39.992188 8.132813 40 8.441406 40 C 8.804688 40 9.167969 40 9.535156 40 L 99.71875 40 C 100.078125 40 100.445313 40 100.804688 40 C 101.109375 40 101.421875 39.992188 101.726563 39.988281 C 102.394531 39.96875 103.066406 39.929688 103.726563 39.8125 C 104.394531 39.6875 105.019531 39.492188 105.636719 39.179688 C 106.230469 38.875 106.777344 38.480469 107.253906 38 C 107.730469 37.53125 108.125 36.980469 108.433594 36.386719 C 108.738281 35.78125 108.9375 35.152344 109.054688 34.480469 C 109.175781 33.820313 109.214844 33.148438 109.238281 32.480469 C 109.242188 32.167969 109.242188 31.867188 109.242188 31.558594 C 109.25 31.195313 109.25 30.832031 109.25 30.464844 L 109.25 9.535156 C 109.25 9.167969 109.25 8.804688 109.242188 8.445313 C 109.242188 8.136719 109.242188 7.832031 109.238281 7.523438 C 109.214844 6.851563 109.175781 6.183594 109.054688 5.523438 C 108.9375 4.851563 108.738281 4.226563 108.433594 3.617188 C 108.125 3.019531 107.730469 2.46875 107.253906 1.996094 C 106.777344 1.523438 106.230469 1.125 105.636719 0.820313 C 105.019531 0.507813 104.394531 0.308594 103.726563 0.191406 C 103.066406 0.0742188 102.394531 0.03125 101.726563 0.015625 C 101.421875 0.0117188 101.109375 0.00390625 100.804688 0.00390625 C 100.445313 0 100.078125 0 99.71875 0 "/>
<path style=" stroke:none;fill-rule:nonzero;fill:rgb(13.699341%,12.199402%,12.5%);fill-opacity:1;" d="M 8.445313 39.125 C 8.140625 39.125 7.84375 39.121094 7.539063 39.113281 C 6.980469 39.097656 6.320313 39.066406 5.671875 38.949219 C 5.0625 38.839844 4.519531 38.660156 4.015625 38.402344 C 3.492188 38.136719 3.023438 37.796875 2.617188 37.386719 C 2.203125 36.980469 1.863281 36.511719 1.597656 35.988281 C 1.335938 35.484375 1.160156 34.945313 1.054688 34.332031 C 0.933594 33.660156 0.902344 32.976563 0.886719 32.457031 C 0.882813 32.246094 0.875 31.542969 0.875 31.542969 L 0.875 8.445313 C 0.875 8.445313 0.882813 7.753906 0.886719 7.550781 C 0.902344 7.027344 0.933594 6.34375 1.054688 5.675781 C 1.160156 5.0625 1.335938 4.523438 1.597656 4.015625 C 1.863281 3.492188 2.203125 3.023438 2.613281 2.617188 C 3.023438 2.203125 3.496094 1.859375 4.015625 1.59375 C 4.527344 1.335938 5.070313 1.15625 5.667969 1.050781 C 6.339844 0.929688 7.023438 0.902344 7.542969 0.886719 L 8.445313 0.875 L 100.800781 0.875 L 101.714844 0.886719 C 102.226563 0.902344 102.90625 0.929688 103.570313 1.050781 C 104.175781 1.15625 104.71875 1.335938 105.242188 1.597656 C 105.753906 1.859375 106.226563 2.203125 106.632813 2.613281 C 107.042969 3.019531 107.386719 3.492188 107.65625 4.019531 C 107.914063 4.53125 108.089844 5.070313 108.191406 5.667969 C 108.308594 6.296875 108.34375 6.945313 108.367188 7.554688 C 108.367188 7.835938 108.367188 8.140625 108.367188 8.445313 C 108.378906 8.820313 108.378906 9.175781 108.378906 9.535156 L 108.378906 30.464844 C 108.378906 30.828125 108.378906 31.183594 108.367188 31.539063 C 108.367188 31.863281 108.367188 32.164063 108.363281 32.46875 C 108.34375 33.058594 108.308594 33.707031 108.195313 34.324219 C 108.089844 34.9375 107.914063 35.480469 107.652344 35.992188 C 107.386719 36.511719 107.042969 36.980469 106.640625 37.378906 C 106.226563 37.796875 105.757813 38.136719 105.238281 38.402344 C 104.722656 38.664063 104.191406 38.839844 103.570313 38.949219 C 102.929688 39.066406 102.269531 39.097656 101.703125 39.113281 C 101.410156 39.121094 101.101563 39.125 100.804688 39.125 L 8.445313 39.125 "/>
<path style=" stroke:none;fill-rule:nonzero;fill:rgb(100%,100%,100%);fill-opacity:1;" d="M 36.160156 9.996094 L 32.664063 9.996094 L 32.664063 3.59375 L 33.480469 3.59375 L 33.480469 9.304688 L 36.160156 9.304688 L 36.160156 9.996094 "/>
<path style=" stroke:none;fill-rule:nonzero;fill:rgb(100%,100%,100%);fill-opacity:1;" d="M 38.335938 9.996094 L 37.507813 9.996094 L 37.507813 5.398438 L 38.335938 5.398438 Z M 38.449219 4.023438 C 38.449219 4.179688 38.398438 4.308594 38.296875 4.40625 C 38.195313 4.503906 38.066406 4.554688 37.90625 4.554688 C 37.753906 4.554688 37.628906 4.503906 37.53125 4.402344 C 37.433594 4.300781 37.386719 4.171875 37.386719 4.023438 C 37.386719 3.871094 37.433594 3.742188 37.535156 3.640625 C 37.636719 3.539063 37.765625 3.488281 37.917969 3.488281 C 38.074219 3.488281 38.203125 3.539063 38.300781 3.636719 C 38.398438 3.734375 38.449219 3.863281 38.449219 4.023438 "/>
<path style=" stroke:none;fill-rule:nonzero;fill:rgb(100%,100%,100%);fill-opacity:1;" d="M 42.820313 8.714844 C 42.820313 9.125 42.667969 9.457031 42.363281 9.707031 C 42.058594 9.957031 41.644531 10.082031 41.117188 10.082031 C 40.628906 10.082031 40.210938 9.980469 39.855469 9.777344 L 40.054688 9.152344 C 40.394531 9.367188 40.757813 9.472656 41.136719 9.472656 C 41.726563 9.472656 42.019531 9.246094 42.019531 8.789063 C 42.019531 8.59375 41.957031 8.433594 41.832031 8.304688 C 41.703125 8.179688 41.488281 8.058594 41.183594 7.945313 C 40.378906 7.640625 39.976563 7.207031 39.976563 6.644531 C 39.976563 6.265625 40.121094 5.945313 40.410156 5.6875 C 40.699219 5.433594 41.078125 5.304688 41.546875 5.304688 C 41.980469 5.304688 42.351563 5.394531 42.65625 5.578125 L 42.449219 6.1875 C 42.167969 6.011719 41.863281 5.921875 41.527344 5.921875 C 41.292969 5.921875 41.109375 5.980469 40.976563 6.097656 C 40.84375 6.214844 40.777344 6.363281 40.777344 6.546875 C 40.777344 6.726563 40.84375 6.871094 40.984375 6.984375 C 41.097656 7.09375 41.316406 7.207031 41.632813 7.328125 C 42.421875 7.636719 42.820313 8.101563 42.820313 8.714844 "/>
<path style=" stroke:none;fill-rule:nonzero;fill:rgb(100%,100%,100%);fill-opacity:1;" d="M 46.523438 6.027344 L 45.34375 6.027344 L 45.34375 8.523438 C 45.34375 9.113281 45.550781 9.40625 45.960938 9.40625 C 46.144531 9.40625 46.304688 9.390625 46.4375 9.351563 L 46.476563 9.976563 C 46.285156 10.046875 46.042969 10.082031 45.742188 10.082031 C 45.359375 10.082031 45.058594 9.96875 44.847656 9.734375 C 44.632813 9.503906 44.527344 9.109375 44.527344 8.554688 L 44.527344 6.027344 L 43.824219 6.027344 L 43.824219 5.398438 L 44.527344 5.398438 L 44.527344 4.554688 L 45.34375 4.304688 L 45.34375 5.398438 L 46.523438 5.398438 L 46.523438 6.027344 "/>
<path style=" stroke:none;fill-rule:nonzero;fill:rgb(100%,100%,100%);fill-opacity:1;" d="M 50.769531 7.242188 C 50.777344 6.894531 50.703125 6.597656 50.550781 6.359375 C 50.355469 6.046875 50.054688 5.894531 49.648438 5.894531 C 49.269531 5.894531 48.964844 6.042969 48.734375 6.347656 C 48.550781 6.597656 48.4375 6.894531 48.394531 7.242188 Z M 51.566406 7.433594 C 51.566406 7.597656 51.558594 7.734375 51.539063 7.839844 L 48.386719 7.839844 C 48.398438 8.378906 48.554688 8.789063 48.859375 9.066406 C 49.125 9.3125 49.484375 9.4375 49.933594 9.4375 C 50.390625 9.4375 50.800781 9.359375 51.167969 9.207031 L 51.3125 9.796875 C 50.898438 9.980469 50.398438 10.074219 49.808594 10.074219 C 49.125 10.074219 48.585938 9.863281 48.191406 9.445313 C 47.792969 9.027344 47.597656 8.46875 47.597656 7.765625 C 47.597656 7.046875 47.789063 6.457031 48.171875 5.992188 C 48.554688 5.527344 49.070313 5.292969 49.714844 5.292969 C 50.367188 5.292969 50.859375 5.542969 51.1875 6.042969 C 51.441406 6.429688 51.566406 6.894531 51.566406 7.433594 "/>
<path style=" stroke:none;fill-rule:nonzero;fill:rgb(100%,100%,100%);fill-opacity:1;" d="M 56.90625 9.996094 L 56.082031 9.996094 L 56.082031 7.328125 C 56.082031 6.429688 55.734375 5.976563 55.042969 5.976563 C 54.714844 5.976563 54.441406 6.101563 54.222656 6.355469 C 54.003906 6.605469 53.894531 6.894531 53.894531 7.222656 L 53.894531 9.996094 L 53.070313 9.996094 L 53.070313 6.644531 C 53.070313 6.265625 53.054688 5.847656 53.03125 5.398438 L 53.761719 5.398438 L 53.808594 6.140625 L 53.828125 6.140625 C 53.957031 5.90625 54.140625 5.710938 54.378906 5.558594 C 54.65625 5.390625 54.972656 5.304688 55.320313 5.304688 C 55.722656 5.304688 56.066406 5.429688 56.34375 5.683594 C 56.71875 6.027344 56.90625 6.542969 56.90625 7.230469 L 56.90625 9.996094 "/>
<path style=" stroke:none;fill-rule:nonzero;fill:rgb(100%,100%,100%);fill-opacity:1;" d="M 64.6875 7.6875 C 64.6875 7.226563 64.578125 6.832031 64.363281 6.5 C 64.117188 6.113281 63.777344 5.921875 63.339844 5.921875 C 62.890625 5.921875 62.539063 6.113281 62.292969 6.5 C 62.078125 6.832031 61.96875 7.230469 61.96875 7.707031 C 61.96875 8.164063 62.082031 8.558594 62.300781 8.894531 C 62.546875 9.28125 62.890625 9.472656 63.328125 9.472656 C 63.757813 9.472656 64.101563 9.277344 64.351563 8.886719 C 64.578125 8.542969 64.6875 8.144531 64.6875 7.6875 Z M 65.53125 7.660156 C 65.53125 8.363281 65.339844 8.941406 64.953125 9.390625 C 64.539063 9.859375 63.988281 10.09375 63.300781 10.09375 C 62.636719 10.09375 62.101563 9.863281 61.703125 9.40625 C 61.332031 8.964844 61.144531 8.40625 61.144531 7.734375 C 61.144531 7.03125 61.335938 6.457031 61.722656 6.007813 C 62.136719 5.539063 62.683594 5.304688 63.375 5.304688 C 64.039063 5.304688 64.574219 5.53125 64.972656 5.988281 C 65.34375 6.425781 65.53125 6.980469 65.53125 7.660156 "/>
<path style=" stroke:none;fill-rule:nonzero;fill:rgb(100%,100%,100%);fill-opacity:1;" d="M 70.890625 9.996094 L 70.0625 9.996094 L 70.0625 7.328125 C 70.0625 6.429688 69.71875 5.976563 69.027344 5.976563 C 68.699219 5.976563 68.421875 6.101563 68.207031 6.355469 C 67.988281 6.605469 67.878906 6.894531 67.878906 7.222656 L 67.878906 9.996094 L 67.050781 9.996094 L 67.050781 6.644531 C 67.050781 6.265625 67.039063 5.847656 67.015625 5.398438 L 67.746094 5.398438 L 67.792969 6.140625 L 67.8125 6.140625 C 67.9375 5.90625 68.121094 5.710938 68.363281 5.558594 C 68.640625 5.390625 68.957031 5.304688 69.300781 5.304688 C 69.710938 5.304688 70.050781 5.429688 70.328125 5.683594 C 70.703125 6.027344 70.890625 6.542969 70.890625 7.230469 L 70.890625 9.996094 "/>
<path style=" stroke:none;fill-rule:nonzero;fill:rgb(100%,100%,100%);fill-opacity:1;" d="M 23.089844 12.511719 C 23.785156 11.652344 24.132813 10.726563 24.132813 9.734375 C 24.132813 9.667969 24.132813 9.601563 24.132813 9.539063 C 24.132813 9.46875 24.125 9.402344 24.113281 9.339844 C 23.628906 9.363281 23.113281 9.515625 22.566406 9.792969 C 22.023438 10.070313 21.574219 10.421875 21.21875 10.84375 C 20.511719 11.679688 20.152344 12.570313 20.152344 13.519531 C 20.152344 13.589844 20.152344 13.652344 20.152344 13.710938 C 20.152344 13.769531 20.160156 13.832031 20.175781 13.898438 C 21.261719 14.003906 22.234375 13.542969 23.089844 12.511719 Z M 26.890625 22.980469 C 26.023438 22.132813 25.582031 21.089844 25.570313 19.847656 C 25.542969 18.234375 26.253906 16.980469 27.699219 16.078125 C 26.882813 14.914063 25.679688 14.261719 24.09375 14.117188 C 23.527344 14.0625 22.804688 14.195313 21.929688 14.515625 C 20.980469 14.855469 20.449219 15.027344 20.332031 15.027344 C 20.082031 15.027344 19.601563 14.882813 18.890625 14.59375 C 18.183594 14.300781 17.578125 14.15625 17.082031 14.15625 C 16.242188 14.167969 15.457031 14.398438 14.738281 14.839844 C 14.015625 15.28125 13.4375 15.886719 13.003906 16.65625 C 12.453125 17.605469 12.175781 18.742188 12.175781 20.066406 C 12.175781 21.253906 12.378906 22.445313 12.789063 23.632813 C 13.167969 24.769531 13.65625 25.769531 14.246094 26.628906 C 14.769531 27.410156 15.230469 27.976563 15.625 28.332031 C 16.1875 28.886719 16.765625 29.15625 17.355469 29.125 C 17.738281 29.113281 18.234375 28.972656 18.855469 28.710938 C 19.433594 28.460938 20.011719 28.332031 20.585938 28.332031 C 21.125 28.332031 21.683594 28.460938 22.261719 28.710938 C 22.902344 28.972656 23.429688 29.105469 23.835938 29.105469 C 24.441406 29.082031 25.007813 28.824219 25.53125 28.332031 C 25.714844 28.171875 25.914063 27.957031 26.132813 27.675781 C 26.347656 27.402344 26.589844 27.070313 26.851563 26.6875 C 27.035156 26.410156 27.214844 26.113281 27.394531 25.796875 C 27.570313 25.476563 27.730469 25.140625 27.875 24.78125 C 27.941406 24.640625 28 24.488281 28.054688 24.339844 C 28.105469 24.1875 28.15625 24.03125 28.210938 23.875 C 27.722656 23.660156 27.285156 23.363281 26.890625 22.980469 Z M 44.203125 28.886719 L 46.972656 28.886719 L 46.972656 14.40625 L 43.851563 14.40625 L 39.851563 23.382813 L 39.757813 23.382813 L 35.757813 14.40625 L 32.617188 14.40625 L 32.617188 28.886719 L 35.351563 28.886719 L 35.351563 19.507813 L 35.480469 19.507813 L 38.824219 26.957031 L 40.746094 26.957031 L 44.078125 19.507813 L 44.203125 19.507813 Z M 61.804688 23.976563 L 61.804688 14.40625 L 58.742188 14.40625 L 58.742188 23.550781 C 58.742188 25.492188 57.585938 26.566406 55.886719 26.566406 C 54.175781 26.566406 53.023438 25.503906 53.023438 23.550781 L 53.023438 14.40625 L 49.96875 14.40625 L 49.96875 23.976563 C 49.96875 27.0625 52.195313 29.164063 55.886719 29.164063 C 59.570313 29.164063 61.804688 27.0625 61.804688 23.976563 Z M 67.820313 18.300781 C 67.820313 17.1875 68.738281 16.484375 70.226563 16.484375 C 71.902344 16.484375 72.738281 17.429688 72.816406 18.449219 L 75.679688 18.449219 C 75.648438 15.890625 73.472656 14.109375 70.234375 14.109375 C 67.167969 14.109375 64.753906 15.6875 64.753906 18.535156 C 64.753906 20.996094 66.449219 22.140625 68.484375 22.574219 L 70.660156 23.074219 C 72.128906 23.402344 72.867188 23.882813 72.867188 24.867188 C 72.867188 25.992188 71.957031 26.757813 70.246094 26.757813 C 68.410156 26.757813 67.449219 25.800781 67.359375 24.730469 L 64.410156 24.730469 C 64.457031 26.777344 65.832031 29.164063 70.097656 29.164063 C 73.683594 29.164063 75.902344 27.414063 75.902344 24.570313 C 75.902344 21.9375 74.109375 20.910156 71.984375 20.453125 L 69.789063 19.964844 C 68.496094 19.699219 67.820313 19.136719 67.820313 18.300781 Z M 78.96875 28.886719 L 82.042969 28.886719 L 82.042969 14.40625 L 78.96875 14.40625 Z M 88.304688 22.492188 L 88.304688 20.855469 C 88.304688 18.078125 89.503906 16.707031 91.339844 16.707031 C 93.164063 16.707031 94.128906 18.085938 94.128906 19.574219 L 97.078125 19.574219 L 97.078125 19.265625 C 97.078125 16.464844 94.90625 14.128906 91.320313 14.128906 C 87.472656 14.128906 85.183594 16.613281 85.183594 20.847656 L 85.183594 22.480469 C 85.183594 26.714844 87.457031 29.164063 91.304688 29.164063 C 94.988281 29.164063 97.078125 26.796875 97.078125 24.167969 L 97.078125 23.851563 L 94.128906 23.851563 C 94.128906 25.34375 93.183594 26.585938 91.359375 26.585938 C 89.492188 26.585938 88.304688 25.28125 88.304688 22.492188 "/>
</g>
</svg>
