<svg width="16" height="16" viewBox="0 0 16 16" fill="none" xmlns="http://www.w3.org/2000/svg">
<path d="M15.9429 8.97119C16 8.68547 16 8.34261 16 7.99976C16 5.77118 15.0286 3.59976 13.3714 2.0569C12.4 1.19976 11.2 0.514042 9.94286 0.228327C9.25714 0.0568988 8.62857 -0.000244141 8 -0.000244141C5.88571 -0.000244141 3.82857 0.856899 2.34286 2.34261C1.14286 3.54261 0.342857 5.08547 0.114286 6.79976C0.0571429 7.19976 0 7.59976 0 7.99976C0 9.19976 0.285714 10.3998 0.8 11.4855C2.11429 14.2283 4.97143 15.9998 8 15.9998C8.17143 15.9998 8.34286 15.9998 8.51429 15.9998C9.6 15.9426 10.6857 15.6569 11.6571 15.1426C14 13.8855 15.6 11.5998 15.9429 8.97119C15.9429 9.02833 15.9429 9.02833 15.9429 8.97119C15.9429 9.02833 15.9429 9.02833 15.9429 8.97119C15.9429 9.02833 15.9429 8.97119 15.9429 8.97119ZM14.8571 7.99976C14.8571 8.0569 14.8571 8.11404 14.8571 8.17118H14.8C14.5143 8.0569 14.2857 7.94261 14.0571 7.82833C14.0571 7.77118 14.0571 7.77118 14.0571 7.71404C14.0571 7.6569 14.1143 7.59976 14.1143 7.54261C14.1714 7.42833 14.1714 7.2569 14.1714 7.14261C14.1714 7.08547 14.1714 7.02833 14.2286 6.91404C14.2286 6.79976 14.2857 6.62833 14.2857 6.51404C14.2857 6.4569 14.2857 6.39976 14.2857 6.34261C14.2857 6.17119 14.2857 5.94261 14.2857 5.77118C14.2857 5.59976 14.2857 5.42833 14.2857 5.31404C14.6286 6.11404 14.8571 7.02833 14.8571 7.99976ZM12.6286 6.8569C12.4571 6.74261 12.3429 6.57118 12.1714 6.4569C12.1143 6.39976 12 6.28547 11.9429 6.22833C11.8286 6.0569 11.6571 5.88547 11.5429 5.71404C11.4857 5.6569 11.4286 5.54261 11.3714 5.48547C11.2 5.2569 11.0286 4.97118 10.9143 4.68547C10.9143 4.57118 10.8571 4.51404 10.8571 4.39976C10.5143 3.54261 10.2857 2.68547 10.2857 1.71404C10.2857 1.6569 10.2857 1.59976 10.2857 1.54261C11.0857 1.82833 11.8857 2.28547 12.5143 2.8569C12.5714 2.97118 12.6286 3.08547 12.6857 3.19976C12.7429 3.31404 12.7429 3.37118 12.8 3.48547C12.8571 3.6569 12.9143 3.77118 12.9143 3.94261C12.9143 4.0569 12.9714 4.11404 12.9714 4.22833C13.0286 4.39976 13.0286 4.57118 13.0286 4.74261C13.0286 4.79976 13.0857 4.91404 13.0857 4.97118C13.0857 5.19976 13.1429 5.48547 13.1429 5.71404C13.1429 5.94261 13.1429 6.17118 13.0857 6.39976C13.0857 6.4569 13.0857 6.51404 13.0857 6.57118C13.0857 6.74261 13.0286 6.91404 13.0286 7.02833C13.0286 7.08547 13.0286 7.08547 13.0286 7.14261C12.9714 7.14261 12.9714 7.08547 12.9143 7.08547C12.8 7.02833 12.7429 6.97118 12.6286 6.8569ZM9.14286 1.2569C9.14286 1.42833 9.14286 1.54261 9.14286 1.71404C9.14286 2.0569 9.14286 2.34261 9.2 2.68547C9.31429 3.54261 9.54286 4.39976 9.94286 5.19976C10.0571 5.48547 10.2286 5.77118 10.4 6.0569C10.4 6.11404 10.4571 6.11404 10.4571 6.17119C10.6286 6.39976 10.8 6.68547 11.0286 6.91404C11.0857 6.97118 11.0857 6.97118 11.1429 7.02833C11.3143 7.2569 11.5429 7.48547 11.7714 7.6569C11.8286 7.71404 11.8286 7.71404 11.8857 7.77118C12.1143 7.99976 12.3429 8.17118 12.6286 8.34261C12.5714 8.4569 12.5143 8.57119 12.4571 8.68547C12.4571 8.74261 12.4 8.74261 12.4 8.79976C12.2857 9.02833 12.1143 9.2569 12 9.48547C11.9429 9.54261 11.9429 9.59976 11.8857 9.6569C11.7143 9.88547 11.6 10.0569 11.4286 10.2855C11.4286 10.2855 11.4286 10.2855 11.3714 10.3426C11.2571 10.0569 11.2 9.82833 11.0857 9.54261C11.0286 9.48547 11.0286 9.37118 10.9714 9.31404C10.9143 9.14261 10.8 8.91404 10.7429 8.74261C10.6857 8.62833 10.6286 8.57118 10.5714 8.4569C10.5143 8.28547 10.4 8.11404 10.2857 7.99976C10.2286 7.88547 10.1714 7.82833 10.1143 7.71404C10 7.54261 9.94286 7.42833 9.82857 7.2569C9.77143 7.14261 9.71429 7.08547 9.6 6.97118C9.48571 6.79976 9.37143 6.68547 9.25714 6.51404C9.2 6.39976 9.14286 6.34261 9.02857 6.22833C8.91429 6.0569 8.74286 5.94261 8.62857 5.77118C8.57143 5.71404 8.51429 5.6569 8.45714 5.54261C8.22857 5.31404 8.05714 5.14261 7.82857 4.91404C7.54286 4.68547 7.31429 4.4569 7.02857 4.22833C6.97143 4.17118 6.91429 4.17118 6.85714 4.11404C6.57143 3.88547 6.28571 3.71404 6 3.54261C5.94286 3.48547 5.88571 3.48547 5.82857 3.42833C5.54286 3.2569 5.25714 3.08547 4.97143 2.97118C4.97143 2.97118 4.91429 2.97118 4.91429 2.91404C4.62857 2.8569 4.28571 2.68547 4 2.57118C3.94286 2.57118 3.94286 2.51404 3.88571 2.51404C5.37143 1.37118 7.25714 0.914042 9.14286 1.2569ZM2.91429 3.42833H2.97143C3.31429 3.54261 3.65714 3.6569 4 3.82833C4.05714 3.82833 4.11429 3.88547 4.17143 3.88547C4.51429 4.0569 4.8 4.17119 5.14286 4.34261C5.2 4.34261 5.2 4.39976 5.25714 4.39976C5.6 4.57118 5.88571 4.79976 6.17143 4.97118L6.22857 5.02833C6.51429 5.2569 6.85714 5.48547 7.14286 5.77118C7.37143 5.94261 7.54286 6.17119 7.71429 6.34261C7.77143 6.39976 7.82857 6.4569 7.88571 6.57118C8 6.68547 8.11429 6.8569 8.22857 6.97118C8.28571 7.02833 8.34286 7.14261 8.45714 7.2569C8.57143 7.37118 8.68571 7.54261 8.74286 7.6569C8.8 7.77118 8.85714 7.82833 8.91429 7.94261C9.02857 8.0569 9.08571 8.22833 9.14286 8.34261C9.2 8.4569 9.25714 8.57119 9.31429 8.68547C9.37143 8.79976 9.48571 8.97118 9.54286 9.08547C9.6 9.19976 9.65714 9.31404 9.71429 9.42833C9.77143 9.54261 9.82857 9.71404 9.88571 9.82833C9.94286 9.94261 10 10.0569 10 10.1712C10.0571 10.2855 10.1143 10.4569 10.1714 10.5712C10.2286 10.6855 10.2286 10.7998 10.2857 10.914C10.2857 10.9712 10.3429 11.0855 10.3429 11.1426C10.2857 11.1426 10.2857 11.1998 10.2286 11.1998C10.0571 11.314 9.88571 11.4283 9.71429 11.5426C9.65714 11.5998 9.6 11.5998 9.54286 11.6569C9.31429 11.7712 9.02857 11.8855 8.8 11.9998C8.8 11.9998 8.8 11.9998 8.74286 11.9998C8.68571 11.8283 8.62857 11.5998 8.57143 11.4283C8.57143 11.3712 8.51429 11.314 8.51429 11.2569C8.45714 11.1426 8.4 11.0283 8.34286 10.8569C8.28572 10.7998 8.28571 10.7426 8.22857 10.6283C8.17143 10.514 8.11429 10.3998 8.05714 10.2855C8 10.2283 8 10.1712 7.94286 10.0569C7.88571 9.94261 7.82857 9.82833 7.77143 9.77118C7.71429 9.71404 7.65714 9.6569 7.65714 9.54261C7.6 9.42833 7.48571 9.37119 7.42857 9.2569C7.37143 9.19976 7.31429 9.14261 7.25714 9.08547C7.2 8.97118 7.08571 8.8569 6.97143 8.79976C6.91429 8.74261 6.85714 8.68547 6.85714 8.62833C6.74286 8.51404 6.57143 8.34261 6.45714 8.22833C6.45714 8.22833 6.45714 8.22833 6.4 8.22833C6.22857 8.0569 6.05714 7.88547 5.82857 7.77118C5.77143 7.71404 5.71429 7.6569 5.65714 7.6569C5.54286 7.54261 5.37143 7.48547 5.25714 7.37118C5.2 7.31404 5.08571 7.2569 5.02857 7.2569C4.91429 7.19976 4.8 7.08547 4.62857 7.02833C4.51429 6.97118 4.45714 6.97118 4.34286 6.91404C4.22857 6.8569 4.11429 6.79976 3.94286 6.74261C3.82857 6.68547 3.77143 6.68547 3.65714 6.62833C3.54286 6.57119 3.42857 6.51404 3.25714 6.51404C3.14286 6.4569 3.02857 6.4569 2.97143 6.4569C2.85714 6.39976 2.74286 6.39976 2.57143 6.34261C2.45714 6.34261 2.34286 6.28547 2.22857 6.28547C2.11429 6.28547 1.94286 6.22833 1.82857 6.22833C1.71429 6.22833 1.6 6.22833 1.48571 6.22833C1.37143 6.22833 1.31429 6.22833 1.2 6.22833C1.65714 5.19976 2.17143 4.22833 2.91429 3.42833ZM7.08571 12.514C7.02857 12.514 6.97143 12.514 6.91429 12.514C6.74286 12.5712 6.51429 12.5712 6.28571 12.5712C6.05714 12.5712 5.88571 12.5712 5.65714 12.514C5.6 12.514 5.54286 12.514 5.42857 12.514C5.31429 12.514 5.14286 12.4569 5.02857 12.4569C4.97143 12.4569 4.85714 12.3998 4.8 12.3998C4.68571 12.3998 4.57143 12.3426 4.45714 12.3426C4.4 12.3426 4.28571 12.2855 4.22857 12.2855C4.11429 12.2283 4 12.2283 3.88571 12.1712C3.77143 12.114 3.71429 12.114 3.65714 12.0569C3.54286 11.9998 3.42857 11.9426 3.31429 11.9426C3.25714 11.8855 3.14286 11.8283 3.08571 11.8283C2.97143 11.7712 2.91429 11.714 2.8 11.6569C2.74286 11.5998 2.62857 11.5426 2.57143 11.4855C2.45714 11.4283 2.4 11.3712 2.28571 11.314C2.22857 11.2569 2.11429 11.1998 2.05714 11.1426C2 11.0855 1.88571 11.0283 1.82857 10.9712C1.37143 9.94261 1.14286 8.97118 1.14286 7.99976C1.14286 7.82833 1.14286 7.59976 1.14286 7.42833C1.25714 7.42833 1.37143 7.42833 1.48571 7.42833C1.6 7.42833 1.65714 7.42833 1.77143 7.42833C1.88571 7.42833 2 7.48547 2.11429 7.48547C2.22857 7.48547 2.28571 7.48547 2.4 7.54261C2.51429 7.54261 2.62857 7.59976 2.74286 7.59976C2.85714 7.59976 2.91429 7.6569 3.02857 7.6569C3.14286 7.71404 3.25714 7.71404 3.31429 7.77118C3.42857 7.82833 3.48571 7.82833 3.6 7.88547C3.71429 7.94261 3.82857 7.99976 3.88571 7.99976C4 8.0569 4.05714 8.0569 4.17143 8.11404C4.28571 8.17119 4.4 8.22833 4.45714 8.28547C4.51429 8.34261 4.62857 8.39976 4.68571 8.39976C4.8 8.4569 4.91429 8.57119 5.02857 8.62833C5.08571 8.68547 5.14286 8.68547 5.2 8.74261C5.37143 8.8569 5.54286 9.02833 5.71429 9.14261C5.94286 9.37119 6.11429 9.54261 6.34286 9.77118C6.34286 9.82833 6.4 9.82833 6.4 9.88547C6.57143 10.114 6.74286 10.3426 6.91429 10.5712C6.91429 10.6283 6.97143 10.6855 6.97143 10.6855C7.14286 10.914 7.25714 11.1426 7.37143 11.4283C7.37143 11.4855 7.42857 11.4855 7.42857 11.5426C7.54286 11.8283 7.65714 12.0569 7.71429 12.3426H7.65714C7.48571 12.4569 7.31429 12.514 7.08571 12.514ZM4.05714 13.3712H4.11429C4.34286 13.4283 4.51429 13.4855 4.74286 13.4855C4.85714 13.4855 4.91429 13.5426 5.02857 13.5426C5.14286 13.5426 5.25714 13.5998 5.37143 13.5998C5.48571 13.5998 5.6 13.5998 5.65714 13.6569C5.77143 13.6569 5.94286 13.6569 6.05714 13.6569C6.11429 13.6569 6.17143 13.6569 6.28571 13.6569C6.57143 13.6569 6.91429 13.6569 7.2 13.5998C7.25714 13.5998 7.37143 13.5998 7.42857 13.5998C7.48571 13.5998 7.6 13.5426 7.65714 13.5426C7.77143 13.5426 7.82857 13.4855 7.94286 13.4855C7.94286 13.4855 7.94286 13.4855 7.94286 13.5426C7.94286 13.7712 8 13.9998 8 14.2283C8 14.3998 8 14.5712 8 14.7998C6.4 14.7998 4.85714 14.2283 3.6 13.1998C3.71429 13.314 3.88571 13.3712 4.05714 13.3712ZM9.14286 14.2855C9.14286 14.0569 9.14286 13.8283 9.08571 13.5998C9.08571 13.5426 9.08571 13.4855 9.08571 13.4283C9.08571 13.3712 9.08571 13.314 9.08571 13.2569C9.14286 13.2569 9.14286 13.1998 9.2 13.1998C9.37143 13.1426 9.54286 13.0855 9.71429 12.9712C9.82857 12.914 9.94286 12.8569 10 12.7998C10.1714 12.6855 10.3429 12.6283 10.5143 12.514C10.5714 12.4569 10.6286 12.4569 10.7429 12.3998C10.7429 12.4569 10.7429 12.514 10.7429 12.5712C10.8 12.7998 10.8 12.9712 10.8 13.1998C10.8 13.2569 10.8 13.3712 10.8 13.4283C10.8 13.6569 10.8 13.8855 10.8571 14.114C10.8571 14.1712 10.8571 14.1712 10.8571 14.2283C10.2857 14.4569 9.71429 14.6855 9.14286 14.7426C9.14286 14.6283 9.14286 14.4569 9.14286 14.2855ZM12 13.5998C12 13.5998 12 13.5426 12 13.5998C12 13.2569 11.9429 12.9712 11.8857 12.6855C11.8857 12.6283 11.8857 12.514 11.8286 12.4569C11.7714 12.2283 11.7714 11.9998 11.7143 11.7712C11.7143 11.714 11.7143 11.6569 11.7143 11.5998L11.7714 11.5426C11.9429 11.3712 12.1143 11.1998 12.2857 11.0283C12.3429 10.9712 12.3429 10.9712 12.3429 10.914C12.4571 10.7426 12.6286 10.5712 12.7429 10.3998C12.8 10.3426 12.8 10.2855 12.8571 10.2855C12.9714 10.114 13.1429 9.88547 13.2571 9.6569C13.2571 9.59976 13.3143 9.59976 13.3143 9.54261C13.4286 9.37119 13.4857 9.14261 13.6 8.97119C13.6 8.91404 13.6571 8.91404 13.6571 8.8569C13.7143 8.91404 13.8286 8.91404 13.8857 8.97119C14 9.02833 14.0571 9.02833 14.1714 9.08547C14.2857 9.14261 14.3429 9.14261 14.4571 9.19976C14.5714 9.2569 14.6286 9.2569 14.7429 9.31404C14.7429 9.31404 14.7429 9.31404 14.8 9.31404C14.4 11.0283 13.4286 12.5712 12 13.5998Z" fill="#DFD3C3"/>
</svg>
