<svg width="19" height="18" viewBox="0 0 19 18" fill="none" xmlns="http://www.w3.org/2000/svg">
<path d="M18.0536 14.4466C18.0481 14.3196 18.0081 14.191 17.9413 14.0734C16.8267 10.841 16.6151 7.45221 16.1413 4.10823C16.0651 3.56742 15.5547 3.38863 15.1523 3.50843C15.0772 3.49454 14.9972 3.48708 14.9089 3.49733C13.8381 3.62239 12.7691 3.75924 11.7007 3.90001C11.3207 3.31445 11.1121 2.62107 10.9801 1.94061C11.4702 1.53364 11.1823 0.534719 10.3626 0.627388C8.38699 0.851027 6.63197 1.07263 4.82236 1.49535C4.51146 1.56832 4.39063 1.77906 4.31598 2.02693C4.20995 2.16276 4.21584 2.33894 4.24998 2.56838C4.36398 3.3345 4.47797 4.10062 4.59193 4.86648C3.54255 5.00403 2.47665 5.14026 1.44797 5.26056C0.998707 5.31322 0.78082 5.67156 0.805777 6.02083C0.789704 6.11053 0.776817 6.21266 0.805306 6.32503C1.65986 9.68454 2.03698 13.1231 2.89145 16.4821C2.90796 16.5462 2.92737 16.6048 2.95487 16.6584C2.95691 17.0747 3.25047 17.482 3.77152 17.3744C8.13249 16.4701 12.6565 16.4617 16.9414 15.2533C17.4212 15.5496 18.1938 15.1141 18.0536 14.4466ZM4.23469 15.7669C3.51132 12.7444 3.11519 9.66701 2.38705 6.64476C6.5186 6.14354 10.627 5.50991 14.76 5.01839C15.1559 7.99937 15.4419 10.9837 16.3275 13.8774C12.3988 14.9765 8.24755 15.0234 4.23469 15.7669ZM5.89088 2.81111C6.66234 2.60324 8.30096 2.37589 9.63019 2.21548C9.76397 2.86112 10.0148 3.49538 10.3048 4.0922C8.90695 4.28246 7.47616 4.47752 6.16568 4.65792C6.08734 4.13146 5.97814 3.39755 5.89088 2.81111Z" fill="#DFD3C3"/>
<path d="M7.59657 7.17169C7.14927 7.33011 7.07472 7.74967 7.22235 8.09272C5.68341 9.47509 5.53295 12.0976 7.59258 13.5474C9.28802 14.7414 11.3405 14.6492 12.6437 13.0868C13.6624 11.8631 13.9905 9.87553 13.23 8.39659C12.1186 6.23704 9.47681 6.50431 7.59657 7.17169ZM11.7301 11.7365C11.2784 12.6277 10.3223 13.1357 9.31883 12.8053C8.41254 12.5078 7.68557 11.8457 7.53173 10.8928C7.35107 9.77223 8.23525 8.86571 9.28061 8.70438C9.62928 8.65085 9.81886 8.41639 9.87385 8.14949C10.631 8.08864 11.3711 8.24914 11.8461 8.92905C12.4158 9.74415 12.1249 10.9559 11.7301 11.7365Z" fill="#DFD3C3"/>
</svg>
