<svg width="25" height="21" viewBox="0 0 25 21" fill="none" xmlns="http://www.w3.org/2000/svg">
<path d="M21.2452 9.7621C20.8862 9.4202 20.4813 9.15481 20.0764 8.88941C20.5711 8.65839 21.0522 8.35112 21.4822 7.98047C21.6709 7.81433 21.6622 7.4328 21.4478 7.34467C20.7385 7.0424 20.0054 6.82925 19.2638 6.67974C19.1601 6.65474 19.0479 6.69337 18.9799 6.75725C18.9133 6.27421 18.794 5.82955 18.5403 5.4109C17.7879 4.0913 16.1581 3.1951 14.5666 3.62152C12.482 4.17719 12.8069 7.10116 11.5203 8.45477C9.20308 9.59648 7.67414 6.60125 8.20522 4.57672C8.28659 4.14394 7.82052 3.98055 7.56905 4.35046C6.48837 5.85582 5.64767 7.70359 5.3069 9.46023C4.69826 12.6043 6.23731 15.4342 8.99958 16.2239C11.6513 16.9504 14.6593 16.34 16.5419 13.5467C17.1366 12.6538 17.794 11.5572 18.2882 10.4359C19.0503 10.6998 20.0417 10.5812 20.8597 10.6032C21.2168 10.6017 21.509 10.0154 21.2452 9.7621ZM19.0364 7.40568C19.5109 7.50543 19.9549 7.65619 20.4209 7.81958C19.9551 8.10135 19.491 8.28137 18.9979 8.41063C18.9758 8.398 18.9605 8.4235 18.9452 8.44901C18.9807 8.09273 19.0162 7.73645 19.0364 7.40568ZM11.9464 15.7155C10.0232 15.9525 7.92766 15.3381 6.89616 13.7907C6.10466 12.5857 5.72298 11.3409 5.97201 9.73725C6.17189 8.41365 6.69995 7.03779 7.41177 5.80107C7.57637 8.05162 9.34287 10.1555 11.6669 9.05194C11.7265 9.05169 11.7792 9.01331 11.8319 8.97493C11.8471 8.94943 11.8471 8.94943 11.8845 8.93655C11.922 8.92368 11.9372 8.89817 11.9525 8.87267C13.3123 7.59507 13.3068 4.23731 15.4174 4.38107C17.3425 4.48745 18.6446 6.32622 18.1425 8.4015C17.3553 11.5464 15.2709 15.3199 11.9464 15.7155ZM18.7552 9.16206C18.7773 9.17469 18.7841 9.21281 18.8283 9.23807C19.0052 9.33907 19.1448 9.45296 19.2996 9.54134C19.0615 9.54234 18.8455 9.55597 18.6143 9.59509C18.6839 9.42946 18.7008 9.3022 18.7552 9.16206Z" fill="#DFD3C3"/>
<path d="M15.9962 6.40892C15.9367 6.40915 15.8773 6.40938 15.8178 6.40961C15.2756 6.37359 14.7355 6.68059 14.4659 7.27876C14.1573 7.99142 14.5708 8.63777 15.1624 8.83877C15.7761 9.05238 16.68 8.78209 16.9817 8.03134C17.3446 7.17872 16.6863 6.4952 15.9962 6.40892ZM15.4284 7.99922C14.8963 7.798 15.1744 7.13627 15.6944 7.15968C15.7166 7.17229 15.7166 7.17229 15.7387 7.18491C15.9087 7.24778 16.3134 7.51302 16.2049 7.79295C16.0964 8.07287 15.6206 8.07471 15.4284 7.99922Z" fill="#DFD3C3"/>
</svg>
